Coordinates
version=1
nRows=9
nColumns=24
inDegrees=yes

Units are S.I. units (second, meters, Newtons, ...)
Angles are in degrees.

endheader
time	pelvis_tilt	pelvis_list	pelvis_rotation	pelvis_tx	pelvis_ty	pelvis_tz	hip_flexion_r	hip_adduction_r	hip_rotation_r	knee_angle_r	ankle_angle_r	subtalar_angle_r	mtp_angle_r	hip_flexion_l	hip_adduction_l	hip_rotation_l	knee_angle_l	ankle_angle_l	subtalar_angle_l	mtp_angle_l	lumbar_extension	lumbar_bending	lumbar_rotation
      1.39583333	      1.13567400	      1.03453546	     -4.55733731	      0.20923958	      1.02160946	      0.27814233	     14.24220751	     -5.76804013	     -4.00748888	    -64.94111605	      5.74401345	     -2.80075590	      7.02888868	      7.57728568	      1.99521111	    -10.75752789	    -10.07943030	     -0.21726491	    -12.38201128	     -2.42871018	    -12.28965392	     -3.50973489	      4.55244013
      1.40000000	      1.14017283	      0.93975152	     -4.31947182	      0.21403852	      1.02228399	      0.27743924	     14.76323161	     -5.63234988	     -4.31941324	    -64.69547871	      5.71495009	     -3.57723349	      6.81150217	      7.16390635	      1.98425764	    -10.56575247	     -9.84375148	     -0.15743776	    -12.30928539	     -2.45769722	    -12.34508198	     -3.34943248	      4.41583686
      1.40416667	      1.29636511	      0.80099365	     -3.84131637	      0.21887595	      1.02322096	      0.27612633	     15.01067968	     -5.57858410	     -4.92763833	    -64.31612148	      5.77625474	     -4.15720186	      6.03985219	      6.60959570	      1.98434287	    -10.11429309	     -9.63206469	     -0.04130363	    -12.19169011	     -2.56110351	    -12.60245881	     -3.06790280	      3.83586726
      1.40833333	      1.32322916	      0.69432469	     -3.59696209	      0.22365420	      1.02389089	      0.27541398	     15.47485066	     -5.44586779	     -5.26412810	    -63.94721542	      5.72788359	     -4.88994242	      5.82061158	      6.17106925	      1.95348541	     -9.92640055	     -9.39206061	      0.02550088	    -12.10974415	     -2.58815899	    -12.68354455	     -2.88859342	      3.70257810
      1.41250000	      1.54726111	      0.53810731	     -3.12294578	      0.22846982	      1.02490800	      0.27412788	     15.61344485	     -5.38578786	     -5.88745412	    -63.43956144	      5.78424275	     -5.40469256	      5.10674481	      5.53237841	      1.92205280	     -9.48807543	     -9.15418124	      0.12248869	    -11.97234891	     -2.67698047	    -13.01636929	     -2.58809070	      3.13475636
      1.41666667	      1.54846252	      0.47409186	     -2.89212343	      0.23322037	      1.02544273	      0.27345476	     16.09766770	     -5.30923922	     -6.22111748	    -63.00388310	      5.82835519	     -6.06247711	      4.96625555	      5.12939885	      1.92209510	     -9.35048348	     -8.91633921	      0.14441629	    -11.87520264	     -2.69226740	    -13.06560727	     -2.44592179	      3.05467942
      1.42083333	      1.77290212	      0.25059165	     -2.41478302	      0.23807814	      1.02647747	      0.27221686	     16.17687122	     -5.17107268	     -6.86175386	    -62.32862200	      5.81004435	     -6.50871178	      4.44218036	      4.48638601	      1.79491221	     -8.92876694	     -8.68486107	      0.28141178	    -11.72429781	     -2.74950750	    -13.37639285	     -2.06591634	      2.46433200
      1.42500000	      1.83435120	      0.17057347	     -2.12898768	      0.24283091	      1.02709328	      0.27143136	     16.53645781	     -5.11196856	     -7.27318385	    -61.73909661	      5.73655754	     -7.09657998	      4.17766383	      4.01527663	      1.78354235	     -8.69747417	     -8.43842313	      0.37286247	    -11.67003950	     -2.77655067	    -13.48890617	     -1.91646227	      2.27505088
      1.42916667	      1.99712313	      0.02014757	     -1.72982474	      0.24759313	      1.02789747	      0.27039409	     16.71021476	     -5.02779397	     -7.82447577	    -61.03183070	      5.73953527	     -7.53923842	      3.82629038	      3.44490801	      1.70488127	     -8.36398341	     -8.20269273	      0.48054391	    -11.51827028	     -2.80909074	    -13.73577275	     -1.63516829	      1.86939877
